# xmcd
#
# Track frame offsets:
#	150
#	14037
#	28912
#	42615
#	53690
#	66632
#	78947
#	94415
#	108840
#	123067
#	136792
#	150305
#	163325
#	175760
#	192380
#	206702
#
# Disc length: 2931 seconds
#
# Revision: 1
# Processed by: cddbd v1.4PL0 Copyright (c) Steve Scherf et al.
# Submitted via: audiograbber 1.82.02
#
DISCID=df0b7110
DTITLE=Honky Tonk Confidential - Your Trailer Or Mine
DYEAR=2002
DGENRE=Country
TTITLE0=It Still Hurts
TTITLE1=Your Trailer Or Mine?
TTITLE2=Goin' Round The World
TTITLE3=Rock Creek Crawl
TTITLE4=Daddy's In A Honky Tonk Downtown
TTITLE5=Pee Wee's Gone
TTITLE6=I Love The Bartender
TTITLE7=Hi-Tech Redneck
TTITLE8=Sancho Panzer
TTITLE9=I Don't Believe In Angels
TTITLE10=That Depends (On What You Mean By Lonesome)
TTITLE11=Cowboy, Whatcha Got On Me?
TTITLE12=Hit With A Bullet
TTITLE13=Check-Out Time
TTITLE14=Love My Baby (All Night Long)
TTITLE15=Big Hat, No CattleI
EXTD=
EXTT0=
EXTT1=
EXTT2=
EXTT3=
EXTT4=
EXTT5=
EXTT6=
EXTT7=
EXTT8=
EXTT9=
EXTT10=
EXTT11=
EXTT12=
EXTT13=
EXTT14=
EXTT15=
PLAYORDER=
